# xmcd
#
# Track frame offsets: 
#        150
#        14225
#        25362
#        36172
#        44595
#        55475
#        76455
#        86945
#        101887
#        115680
#        132270
#        145737
#        156557
#        162745
#        180225
#        190405
#        203385
#        217462
#        236525
#        247825
#        258887
#        270897
#        280612
#        292062
#        305737
#
# Disc length: 4267 seconds
#
# Revision: 3
# Processed by: cddbd v1.5.2PL0 Copyright (c) Steve Scherf et al.
# Submitted via: ExactAudioCopy v0.99pb5
#
DISCID=7b10a919
DTITLE=Various Artist - Country Stars [CD 3)
DYEAR=1992
DGENRE=Country
TTITLE0=Bobby Bare - Medley - 500 Miles Away from Home - Four Strong W
TTITLE0=inds - Shame On Me
TTITLE1=Sandy Posey - I Take it Back
TTITLE2=The Bellamy Brothers - Sugar Daddy
TTITLE3=Freddy Quinn - Oh, Susanne
TTITLE4=Hank Locklin' - Send Me the Pillow that You Dream On
TTITLE5=Tanya Tucker - Texas When I Die
TTITLE6=Boxcar Willie - Wabash Cannonball
TTITLE7=Merle Haggard - Folsom Prison Blues
TTITLE8=Anne Murray - Danny's Song
TTITLE9=Porter Waggon - Louisiana Saturday Night
TTITLE10=Freddy Wellor - Games People Play
TTITLE11=Ricky Nelson - Travelin' Man
TTITLE12=Tammy Wynette - Welcome to My World
TTITLE13=Kenny Rogers - Something's Burning
TTITLE14=Loretta Lynn - You're Looking at Country
TTITLE15=Charlie Rich - I Take it On Home
TTITLE16=Barbara Mandrell - Try to Remember
TTITLE17=Freddy Fender - Secret Love
TTITLE18=Patsy Cline - I've Loved and Lost Again
TTITLE19=George Jones - No Show Jones
TTITLE20=Donna Fargo - Funny Face
TTITLE21=Don Williams - Endless Sleep
TTITLE22=Jeannie C. Riley - Total Woman
TTITLE23=Hoyt Axton - Joy to the World
TTITLE24=Connie Francis - Are You Lonesome Tonight
EXTD=
EXTT0=
EXTT1=
EXTT2=
EXTT3=
EXTT4=
EXTT5=
EXTT6=
EXTT7=
EXTT8=
EXTT9=
EXTT10=
EXTT11=
EXTT12=
EXTT13=
EXTT14=
EXTT15=
EXTT16=
EXTT17=
EXTT18=
EXTT19=
EXTT20=
EXTT21=
EXTT22=
EXTT23=
EXTT24=
PLAYORDER=
